<svg version="1.2" xmlns="http://www.w3.org/2000/svg" viewBox="0 0 2324 543" width="2324" height="543"><style>.a{fill:#e4e5f1}.b{fill:#3984c5}</style><path class="a" d="m1249.9 189v137.7h-63.8v-326.7c2.2 2 3.9 3.1 5 4.6 13.3 18.4 26.5 37 39.9 55.4 22 30.2 44.1 60.3 66.1 90.5 14.7 20.1 29.2 40.2 44.1 60.7 5.8-8 11.5-15.7 17.1-23.5q33.9-46.8 67.8-93.5c21.6-29.7 43.1-59.4 64.7-89.1 1.2-1.6 2.9-2.9 4.3-4.4q0.6 0.4 1.1 0.8v325.2h-63.5v-136.5q-0.5-0.1-0.9-0.3c-30.1 43.9-60.2 87.8-90.6 132.2-30.5-44.4-60.6-88.3-91.3-133.1z"/><path class="a" d="m1671.4 317.8v-317.2c1-0.1 2-0.3 2.9-0.3 34 0 67.9-0.4 101.9 0.2 23.5 0.3 45.4 6.8 64.5 21 22.8 16.9 37.2 39.2 41.3 67.3 5.3 36.7-9.9 77.8-46 97.7-3.5 1.9-7.1 3.4-11.4 5.5 29.9 41.7 59.7 83.5 89.9 125.7-1.7 0.1-2.8 0.3-4 0.3-23.4 0.1-46.7 0-70 0.1-3 0-4.7-1-6.3-3.4-20.3-30.3-40.8-60.5-61.1-90.8q-17.8-26.3-35.6-52.6c-0.5-0.7-1-1.3-2-2.7v149.1h-64.1zm63.9-174.2c14.3 0 28.1 0.2 41.9 0 21-0.2 42.3-17.8 39.2-45.1-1.8-15.8-14.2-30.3-28.5-32.5-17.2-2.7-34.9-2.2-52.6-3.1z"/><path class="a" d="m2074.9 1.1c50.7 108.5 101.4 217 152.3 326-22.8 0-44.9 0-67-0.2-1.2 0-3-1.6-3.7-3-5.8-12.4-11.5-24.9-17-37.5-1.3-2.9-2.8-3.8-6-3.8q-59.4 0.1-118.8 0c-3.1 0-4.7 0.8-5.9 3.8-5.5 12.4-11.3 24.7-16.9 37.1-1 2.3-2 3.7-5 3.6-21.6-0.1-43.2 0-65.8 0 50.8-109 101.4-217.5 152-326.1 0 0 1.8 0.1 1.8 0.1zm-0.7 142.3c-13.1 28.5-25.8 56.4-38.7 84.5h77.2c-12.8-28.2-25.4-55.9-38.5-84.5z"/><path fill-rule="evenodd" class="a" d="m2323.5 9.5v317.3h-63.4v-317.3z"/><path fill-rule="evenodd" class="a" d="m1616.3 9.6v317.2h-63.5v-317.2z"/><path class="a" d="m2028.6 539.9c-48.8-0.4-87.6-37.5-91.2-83.4-4.6-60.1 43.4-101 92.2-100.4 51.4 0.7 91.6 42.1 91.5 92.4-0.1 51.7-43 91.7-92.5 91.4zm1.2-36c28.7-0.4 55.3-23.3 55.1-56.4-0.1-29.3-23.5-55.4-56.8-55.4-30.1 0-55.1 25.6-55 56.2 0.1 31 25.3 55.7 56.7 55.6z"/><path class="a" d="m1731.7 359.1c15.2 0 30-0.3 44.7 0 9.6 0.2 19.6-0.1 28.8 2.2 22.3 5.5 38.1 19.5 43 42.4 5.3 25.2-3.3 49.5-28.4 61.4-0.6 0.2-1.1 0.7-2.2 1.4 16.5 23.2 32.9 46.3 49.7 70-1.8 0.1-3 0.4-4.2 0.4-11.1 0-22.3-0.2-33.4 0.1-4.1 0.1-6.5-1.1-8.9-4.6-16.5-24.8-33.2-49.5-49.9-74.1-0.9-1.4-1.8-2.6-3.4-4.8v83h-35.8v-177.5zm35.7 80c8.3 0 16.1 0.1 23.8 0 10.9-0.3 20-8.4 21.8-19.1 1.7-10-4.6-21.5-15.1-23.8-9.8-2.2-20.2-1.8-30.5-2.6v45.5z"/><path class="a" d="m2291 407.7c-8.5-12.9-20-17.2-34-13.4-4.6 1.3-9.3 4.6-12.6 8.3-4.8 5.4-3.3 12.7 3 16.9 5.1 3.3 10.8 5.7 16.2 8.6 12.6 6.7 25.8 12.6 37.6 20.4 17.2 11.3 25 27.9 22.1 48.6-3 21.8-16.5 35.2-36.8 41.6-21.7 6.8-43.2 6.2-64-4.1-11.1-5.5-21.1-15.8-25.5-26.1 9.2-6.6 18.6-13.1 28.1-19.8 12.3 17.9 29.2 21.1 48.7 16.2 2.8-0.7 5.6-2.2 8-3.8 6.7-4.7 8.3-11.9 3.2-18.2-4-4.8-8.9-9.1-14.2-12.3-11.3-6.6-23.4-12-34.7-18.6-7-4.1-14.1-8.7-19.5-14.6-18.2-20-13.3-52.8 10.4-68.3 22.3-14.5 46-15 69.8-3.4 8.8 4.3 14.9 11.7 18.8 20.6 0.6 1.2 0.3 3.8-0.6 4.5-7.7 5.7-15.7 11.1-24.1 16.9z"/><path class="a" d="m1486.5 359c12.4 0 24-0.1 35.6 0.2 1.3 0 3.1 2.1 3.8 3.7 13.7 30.8 27.3 61.7 40.9 92.6 0.8 1.7 1.7 3.5 3 6.1 2.4-5.4 4.5-10 6.5-14.6 12.4-28 24.8-56 37-84 1.4-3.1 3-4.1 6.3-4 11 0.2 22 0 33.8 0-27.8 61-55.4 121.5-83.6 183.4-28.2-61.9-55.6-122.4-83.3-183.4z"/><path class="a" d="m1220.5 501.6h71v34.9h-106.3v-177.1h35.3c0 0 0 142.2 0 142.2z"/><path fill-rule="evenodd" class="a" d="m1408.2 359.4v177.3h-35.1v-177.3z"/><path fill-rule="evenodd" class="b" d="m1098.4 1q0 0 0 0 0 0 0 0zm0 0c14.4 0 26.1 11.8 26.1 26.2v395.9c0 62.7-51.2 113.9-113.8 113.9h-941.9c-37.9 0-68.8-31-68.8-68.8v-398.4c0-37.8 30.9-68.8 68.8-68.8h840.2q4.7 0 8.3 0.7 2.8-0.7 5.7-0.7c14.4 0 26.1 11.8 26.1 26.2v395.9c0 33.8 27.8 61.6 61.6 61.6 33.7 0 61.5-27.8 61.5-61.6v-395.9c0-14.4 11.7-26.2 26.2-26.2zm-94 20.2v418.8c0 11.2-9 20.2-20.2 20.2-11.1 0-20.1-9-20.1-20.2v-418.8c0-11.1 9-20.2 20.1-20.2 11.2 0 20.2 9.1 20.2 20.2zm52.9 418.8c0 11.2-9 20.2-20.1 20.2-11.2 0-20.2-9-20.2-20.2v-418.8c0-11.1 9-20.2 20.1-20.2 11.2 0 20.2 9.1 20.2 20.2v417.3q0 0.7 0 1.5zm-585-23.3l-147.1-131.7h136.3v-38.6h-167.4v-68.4h137.4v-38.5h-137.4v-66.8h-38.5v66.8h-137.3v38.5h137.3v68.4h-167.4v38.6h136.4l-147.1 131.7 25.6 28.7 152.5-136.7v156.6h38.5v-156.6l152.5 136.7zm403.3 29zm0 0l24.8-29.4-144.7-122.2h134.4v-38.6h-87.8l40.9-76.9-34-18.1-41.8 78.5 31 16.5h-75.7v-95.9h151.5v-38.6h-151.5v-48.3h-38.6v48.3h-151.5v38.6h151.5v95.9h-75.7l31-16.5-41.8-78.5-34 18.1 40.9 76.9h-87.8v38.6h134.1l-144.4 122.2 24.8 29.4 152.9-129.4v148.9h38.6v-148.7z"/></svg>